<svg xmlns="http://www.w3.org/2000/svg" id="svg28" version="1.1" viewBox="0 0 1750 212"><defs id="defs4"><style id="style2">.cls-1{fill:#2ea652;fill-rule:evenodd}</style></defs><g id="Layer_2" data-name="Layer 2" transform="scale(1.10852)"><g id="Layer_1-2" data-name="Layer 1"><path id="path8" d="M1011.53 186.72c-1.43-25.73-2.85-51.33-4.32-77.7-2.33 2.64-4.2 4.71-6 6.82l-38.56 44.74c-2.14 2.48-2.42 2.46-4.46.17L913 110.16a16.23 16.23 0 0 0-1.43-1.16l-4.31 77.75H860c0-2.36-.1-4.69 0-7 .24-4.45.63-8.9.9-13.35q1-16.78 1.95-33.56c.69-12.24 1.34-24.49 2-36.74q.7-12.65 1.46-25.29l2-33.57q1-16.79 2-33.32a6 6 0 0 1 .89-2.58c29.88 32.79 59.21 66 89 99.28l87.22-99.42.8.28c.25 2.1.61 4.2.72 6.31.56 10.31 1 20.62 1.6 30.92.44 8.1 1 16.21 1.44 24.31l2 34.54q.69 11.92 1.44 23.83c.77 12.23 1.59 24.46 2.33 36.69.43 7.3.72 14.61 1.1 21.92.12 2.17.31 4.34.49 6.73z" class="cls-1"/><path id="path10" d="m806.2 122.29 37.71 64.47c-1 .07-1.56.15-2.17.15-16.06 0-32.11 0-48.17.06a3.41 3.41 0 0 1-3.4-2.07c-9.83-17.52-19.72-35-29.52-52.54-1.06-1.89-2.16-2.85-4.5-2.73-4.47.23-9 .07-13.79.07v57.06h-48.42V4.89c.85-.05 1.64-.14 2.43-.14 26 0 52-.41 78 .24 17.66.44 33.91 6 47 18.49a56.72 56.72 0 0 1 16.72 31.87 71 71 0 0 1-.76 30.47c-4.24 16.47-14.33 28.18-29.52 35.6-.43.21-.81.45-1.61.87zM742.27 69v21.5c0 1.38.11 2.37 1.9 2.33 8.7-.2 17.42 0 26.09-.63a26.64 26.64 0 0 0 10.53-3.4c8.49-4.67 10.7-14.59 9.51-23.84a21 21 0 0 0-5.46-12.23c-5-5.2-11.41-6.72-18.17-7-7.32-.27-14.66 0-22-.1-2 0-2.45.73-2.43 2.58.08 6.91.03 13.79.03 20.79z" class="cls-1"/><path id="path12" d="M1304 96v90.68h-45.71c0-.84-.12-1.7-.12-2.56V3.41a11.92 11.92 0 0 1 .74-2.91 11.44 11.44 0 0 1 3 1.26q17.59 14.4 35.09 28.86L1354.44 78l18.65 15.35c.93.77 1.89 1.5 3.26 2.59V5H1422c0 .8.12 1.66.12 2.52v181a13.26 13.26 0 0 1-.57 2.73 10.59 10.59 0 0 1-3-1.17q-23.25-19-46.42-38.08l-65.58-54c-.66-.51-1.34-1-2.55-2z" class="cls-1"/><path id="path14" d="M406.81 186.78h-48.48V4.89c1-.05 1.83-.14 2.69-.14 14.26 0 28.52.07 42.79-.07 2.6 0 3.06.84 3.05 3.2-.08 22.74 0 45.48 0 68.22v3.72c1-1.1 1.64-1.63 2.11-2.26q20.36-27.3 40.69-54.62c4-5.42 8-10.87 12.16-16.2a5 5 0 0 1 3.28-1.9c16.38-.12 32.77-.08 49.15-.08.32 0 .64 0 1.45.11-1.94 2.6-3.68 5-5.47 7.31q-26.65 34.77-53.35 69.51a2.92 2.92 0 0 0-.14 4Q475 113.3 493.11 141q14.42 21.93 28.8 43.89c.35.53.63 1.1 1.09 1.91-.85.07-1.45.16-2.06.16h-53.06a3.48 3.48 0 0 1-3.35-1.82q-20.32-31.14-40.76-62.31c-.4-.6-.85-1.17-1.52-2.1-1.52 1.78-2.95 3.38-4.3 5-3.24 4-6.54 7.9-9.62 12a7.51 7.51 0 0 0-1.45 4.17c-.11 13.94-.06 27.87-.06 41.81z" class="cls-1"/><path id="path16" d="M583.92 45.43v30.21h65.68v38.77h-65.67c-.05 1.12-.13 2-.13 2.84 0 8.64.08 17.28-.06 25.92 0 2.41.76 3 3.06 3q38.27-.11 76.55 0c3.19 0 3.2 0 3.2 3.18v37.48H535.38V5h127.44v40.43z" class="cls-1"/><path id="path18" d="m341.37 41.19-36.79 25c-2.72-3.11-5.14-6.17-7.86-8.94-7.26-7.39-16.33-11-26.49-12.16-8.9-1.05-17.53-.31-25.66 3.71C234 54 227.44 62.7 223.36 73.53a59 59 0 0 0-3.78 20.76c0 15.41 3.61 29.7 15 41a40.14 40.14 0 0 0 24.73 11.46 53.26 53.26 0 0 0 26.5-3.61c8.85-3.68 15.12-10.27 20-18.34l1.72-2.89 37.78 24.26c-4.14 5.44-7.84 10.88-12.12 15.82-13.36 15.39-30.6 23.5-50.62 26-19.15 2.43-37.92 1.33-55.9-6.4-25.19-10.83-42.62-29.06-51.69-55a92.2 92.2 0 0 1-4.77-26.26A94.88 94.88 0 0 1 179 54.7a89.39 89.39 0 0 1 33.1-37.61A86.72 86.72 0 0 1 252.46 3C280.1.77 305.79 6.05 327 25.36c5.13 4.64 9.4 10.3 14.37 15.83z" class="cls-1"/><path id="path20" d="m1570.09 26.59-27.55 28.89c-2.54-2-4.79-4.16-7.32-5.85a40.25 40.25 0 0 0-32.35-6c-7.24 1.65-10.64 6.79-9.71 14.07a10.26 10.26 0 0 0 6.69 8.41c6.92 2.78 14 5.24 21 7.64 9.84 3.34 19.8 6.36 29 11.34 11.07 6 20.38 13.74 25.21 25.81 3.54 8.87 4.08 18.12 3.32 27.55a54.89 54.89 0 0 1-6.91 23.4c-6.86 11.91-17.42 19-30.24 23.2-12.47 4-25.34 4.94-38.3 4.27-16.52-.85-32.24-4.77-46.52-13.51a79.54 79.54 0 0 1-20.89-18.18c-.4-.5-.76-1-1.35-1.83l35.1-26.35c.92 1 1.82 1.88 2.65 2.84 12.4 14.57 28.12 19.44 46.64 15.77 8-1.58 12.24-6.78 12-14.21a10.55 10.55 0 0 0-6-9.45 140.33 140.33 0 0 0-15-6.4c-9.59-3.57-19.44-6.5-28.88-10.42-11.88-4.94-21.9-12.45-28.4-23.94A51.85 51.85 0 0 1 1446 60.1a55.7 55.7 0 0 1 3.44-23.22c5.25-13.37 14.93-22.46 27.91-28.19a72.26 72.26 0 0 1 25.94-6c15-.73 29.46 1.09 43.34 6.89a62.41 62.41 0 0 1 21.61 14.77c.62.65 1.15 1.39 1.85 2.24z" class="cls-1"/><path id="path22" d="M180.13 186.8c-1 .05-1.73.11-2.44.12h-45.24a3.12 3.12 0 0 1-3.43-2.24c-2.51-6-5.26-11.89-7.79-17.88a2.84 2.84 0 0 0-3.12-2q-29.71.08-59.43 0a2.61 2.61 0 0 0-2.89 1.9c-2.29 5.82-4.76 11.58-7.1 17.38C47.93 186 47 187 44.64 187c-13.94-.16-27.88-.08-41.82-.08H0c1.6-3.42 3-6.49 4.46-9.53Q28.21 127.77 52 78.17l35.14-73.5a28.71 28.71 0 0 1 1.48-3.07C89 1 89.74.1 90.29.12c.55.02 1.31.88 1.63 1.55Q98.34 15 104.66 28.3q9.49 19.93 19 39.87 17.2 36.12 34.42 72.23 10.45 21.91 20.91 43.82c.34.78.68 1.57 1.14 2.58zm-75.37-57.36L88.09 90.68l-16.41 38.76Z" class="cls-1"/><path id="path24" d="M1247.12 186.79c-1.08.05-1.86.12-2.64.12-15 0-30 0-45 .05a3.18 3.18 0 0 1-3.46-2.25c-2.53-6-5.23-11.91-7.76-17.9a2.69 2.69 0 0 0-2.89-1.94q-29.83.07-59.66 0a2.64 2.64 0 0 0-2.87 1.94c-2.42 6-5 12-7.43 18-.52 1.27-1.07 2.12-2.77 2.11-14.75-.08-29.51 0-44.26-.05-.31 0-.63-.06-1.28-.13 1.54-3.3 3-6.44 4.48-9.56q16.92-35.32 33.85-70.63 23.11-48.3 46.19-96.61c1.3-2.71 2.52-5.47 3.88-8.14a8.77 8.77 0 0 1 1.77-1.8c.6.6 1.42 1.11 1.77 1.83q7.63 15.82 15.15 31.69 9.65 20.26 19.3 40.53 17.09 35.9 34.19 71.8 9.18 19.27 18.39 38.52c.34.7.63 1.43 1.05 2.42zm-108.38-57.38h33.07l-16.68-38.71Z" class="cls-1"/></g></g></svg>