<svg xmlns="http://www.w3.org/2000/svg" version="1.2" viewBox="0 0 770 214.17"><defs><clipPath id="a"><path d="M0 0h278v214.172H0Zm0 0"/></clipPath><clipPath id="b"><path d="M631 28h139v186.172H631Zm0 0"/></clipPath></defs><path fill="#040606" d="M562.594 34.992v25.086h.531c1.746-4.207 4.098-8.035 7.133-11.64 2.96-3.606 6.453-6.61 10.32-9.165 3.875-2.55 7.973-4.503 12.371-5.855 4.403-1.352 8.957-2.105 13.739-2.105 2.43 0 5.16.453 8.199 1.277v34.472c-1.746-.374-3.871-.675-6.301-.902-2.43-.3-4.856-.375-7.137-.375-6.828 0-12.672 1.125-17.453 3.38-4.781 2.253-8.574 5.331-11.46 9.237-2.884 3.903-4.934 8.485-6.223 13.743-1.215 5.257-1.82 10.89-1.82 16.972v60.828H527V34.992h35.594"/><g clip-path="url(#a)"><path fill="#e01f3b" d="M265.172 128.418c-15.027-12.164-40.531-20.727-49.563-23.508-2.804-26.433-15.254-52.644-34.379-72.168C160.59 11.715 134.332.074 107.313-.004c-6.907 0-13.813.754-20.567 2.254-7.21 1.578-14.117 4.133-21.098 7.813-9.793 5.18-18.367 11.789-26.257 20.277-4.707 5.027-8.883 10.437-12.524 15.996C14.418 65.484 5.77 88.164 1.747 111.973.604 118.582 0 124.813 0 130.445c.074 12.016 2.504 21.18 7.512 28.012 5.695 7.887 14.422 12.242 24.59 12.242h.304c6.528 0 13.66-1.578 21.782-4.808a109.57 109.57 0 0 0 6.07 10.14c7.058 10.364 13.965 18.324 21.023 24.406 10.473 9.012 21.098 13.52 31.801 13.594 5.613 0 11.156-1.277 16.543-3.832 5.313-2.55 10.094-5.48 13.89-8.484 6.298-4.957 12.063-10.363 17.606-15.621l.457-.375c4.629-4.356 8.953-8.414 13.508-12.242 12.75-10.59 23.45-18.25 33.543-23.88 9.031 13.59 25.273 22.676 40.832 22.829h.226c11.083 0 20.493-5.332 25.122-14.344a19.33 19.33 0 0 0 2.277-9.164c-.078-7.281-3.871-13.816-11.914-20.5Zm-20.797 9.687c1.82 0 3.34.153 4.703.375 1.445.227 2.582.602 3.492.977.836.375 1.215.602 1.29.676l.988.75c4.78 3.906 6.07 6.984 6.07 8.187 0 .528-.148 1.051-.453 1.653-2.05 3.828-5.465 5.558-11.004 5.632h-.305c-7.664 0-18.972-5.105-25.652-13.82.531-.226 1.062-.375 1.52-.601 6.68-2.403 13.738-3.829 19.351-3.829v-1.578Zm-67.621-39.05c-17 0-34.227 3.226-52.594 9.836-12.219 4.355-21.703 9.238-34.984 17.722a169.975 169.975 0 0 0-5.922 3.985l-.684.449c-5.691 3.828-12.672 8.562-20.11 12.84-4.933-14.418-7.437-30.64-7.437-47.989 0-6.234.301-12.765.985-19.3 2.504-26.133 12.676-46.336 27.703-55.496 2.73-1.653 5.312-2.704 7.89-3.305l.837-.152c5.085-.973 10.093-1.5 14.949-1.5h.383c42.195 0 83.406 38.527 90.996 84.636-7.442-1.125-14.801-1.726-22.012-1.726ZM73.69 167.094c-1.746-2.551-3.34-5.332-4.933-8.262.383-.227.836-.45 1.215-.676 7.968-4.504 15.101-9.312 21.78-13.816l.532-.375c2.203-1.43 4.098-2.781 5.77-3.832 12.37-8.035 20.414-12.09 31.644-16.145 16.7-6.011 32.106-8.863 47.055-8.863 7.059 0 13.965.602 21.176 1.879 4.476.75 15.254 3.68 26.789 8.11a147.37 147.37 0 0 0-5.313 1.726c-21.25 7.808-40.453 22.457-54.793 34.324-4.781 3.977-9.336 8.258-13.664 12.313l-.984.902c-5.617 5.258-10.852 10.289-16.547 14.719-2.883 2.254-6.676 4.582-10.773 6.457-3.266 1.504-6.375 2.254-9.641 2.254-6.527 0-13.66-3.227-21.024-9.614-6.07-4.957-12.14-12.164-18.289-21.101ZM39.77 74.945c-.684 7.063-1.063 14.121-1.063 20.88 0 19.976 3.035 38.6 9.031 55.273-5.922 2.328-11.082 3.53-15.258 3.53-5.539-.077-8.726-1.577-11.761-5.558-2.809-3.832-4.403-10.437-4.403-18.55 0-4.73.457-10.063 1.442-15.844 3.644-21.63 11.535-42.281 22.77-59.555 1.44-2.254 3.035-4.43 4.702-6.61-2.652 8.11-4.55 17.122-5.46 26.434"/></g><path fill="#040606" d="M340.152 34.992v18.25h.532c4.933-6.984 10.851-12.39 17.836-16.219 6.98-3.832 14.875-5.71 23.906-5.71 8.652 0 16.469 1.652 23.601 4.957 7.133 3.304 12.524 9.164 16.243 17.5 4.02-5.934 9.558-11.114 16.468-15.622 6.98-4.507 15.176-6.757 24.664-6.757 7.211 0 13.887.898 20.036 2.629 6.148 1.726 11.46 4.503 15.863 8.335 4.398 3.829 7.816 8.86 10.32 15.02 2.43 6.156 3.719 13.59 3.719 22.305v90.343h-37.492V93.496c0-4.508-.153-8.785-.532-12.766-.378-3.98-1.289-7.511-2.882-10.44-1.594-2.927-3.946-5.33-6.985-7.06-3.11-1.726-7.285-2.628-12.52-2.628-5.238 0-9.562.976-12.824 3.003-3.265 2.028-5.77 4.583-7.668 7.813-1.82 3.23-3.109 6.91-3.718 10.965a84.775 84.775 0 0 0-.91 12.39v75.172h-37.493V94.246c0-3.98-.074-7.96-.3-11.863-.153-3.906-.914-7.512-2.278-10.817-1.293-3.304-3.492-5.933-6.601-7.96-3.114-2.028-7.59-3.004-13.586-3.004-1.746 0-4.102.375-6.985 1.203-2.882.75-5.691 2.254-8.421 4.43-2.735 2.18-5.086 5.331-6.985 9.386-1.973 4.059-2.883 9.465-2.883 16.074v78.328h-37.492V34.993h35.367"/><g clip-path="url(#b)"><path fill="#040606" d="M666.785 31.828v17.274h.531c4.555-7.286 10.399-12.618 17.454-15.922 7.058-3.301 14.8-4.957 23.226-4.957 10.7 0 19.961 2.03 27.7 6.007 7.741 3.985 14.195 9.317 19.277 15.922 5.086 6.61 8.882 14.344 11.308 23.133 2.43 8.785 3.719 17.95 3.719 27.563 0 9.007-1.215 17.722-3.719 26.132-2.426 8.336-6.222 15.77-11.23 22.23-5.012 6.458-11.235 11.563-18.746 15.395-7.516 3.829-16.242 5.708-26.262 5.708-8.422 0-16.238-1.727-23.371-5.106-7.137-3.383-12.98-8.414-17.531-15.023h-.536v63.988h-37.488V31.828Zm48.723 107.02c4.176-2.407 7.512-5.633 10.02-9.54 2.577-3.906 4.324-8.488 5.386-13.742a79.53 79.53 0 0 0 1.594-15.921c0-5.41-.606-10.665-1.746-15.922-1.137-5.184-3.035-9.914-5.692-13.97-2.656-4.054-6.07-7.358-10.168-9.913-4.097-2.477-9.183-3.754-15.18-3.754-6.148 0-11.308 1.277-15.406 3.754-4.171 2.555-7.511 5.785-10.015 9.765-2.582 3.98-4.328 8.633-5.39 13.817-1.063 5.258-1.595 10.59-1.595 16.223 0 5.406.61 10.738 1.746 15.921 1.137 5.18 2.961 9.762 5.54 13.743 2.582 3.906 5.921 7.058 10.168 9.539 4.253 2.476 9.335 3.675 15.335 3.675 6.145 0 11.23-1.199 15.403-3.675"/></g></svg>