<?xml version="1.0" encoding="UTF-8"?>
<svg xmlns="http://www.w3.org/2000/svg" xmlns:xlink="http://www.w3.org/1999/xlink" width="339.81pt" height="110.59pt" viewBox="0 0 339.81 110.59" version="1.1">
<defs>
<clipPath id="clip1">
  <path d="M 310 62 L 339.808594 62 L 339.808594 89 L 310 89 Z M 310 62 "/>
</clipPath>
<clipPath id="clip2">
  <path d="M 40 97 L 45 97 L 45 110.589844 L 40 110.589844 Z M 40 97 "/>
</clipPath>
<clipPath id="clip3">
  <path d="M 48 97 L 62 97 L 62 110.589844 L 48 110.589844 Z M 48 97 "/>
</clipPath>
<clipPath id="clip4">
  <path d="M 71 97 L 84 97 L 84 110.589844 L 71 110.589844 Z M 71 97 "/>
</clipPath>
<clipPath id="clip5">
  <path d="M 103 97 L 118 97 L 118 110.589844 L 103 110.589844 Z M 103 97 "/>
</clipPath>
<clipPath id="clip6">
  <path d="M 121 97 L 135 97 L 135 110.589844 L 121 110.589844 Z M 121 97 "/>
</clipPath>
<clipPath id="clip7">
  <path d="M 137 97 L 152 97 L 152 110.589844 L 137 110.589844 Z M 137 97 "/>
</clipPath>
<clipPath id="clip8">
  <path d="M 155 97 L 171 97 L 171 110.589844 L 155 110.589844 Z M 155 97 "/>
</clipPath>
<clipPath id="clip9">
  <path d="M 175 97 L 191 97 L 191 110.589844 L 175 110.589844 Z M 175 97 "/>
</clipPath>
<clipPath id="clip10">
  <path d="M 195 97 L 211 97 L 211 110.589844 L 195 110.589844 Z M 195 97 "/>
</clipPath>
<clipPath id="clip11">
  <path d="M 215 97 L 228 97 L 228 110.589844 L 215 110.589844 Z M 215 97 "/>
</clipPath>
<clipPath id="clip12">
  <path d="M 232 97 L 247 97 L 247 110.589844 L 232 110.589844 Z M 232 97 "/>
</clipPath>
<clipPath id="clip13">
  <path d="M 250 97 L 265 97 L 265 110.589844 L 250 110.589844 Z M 250 97 "/>
</clipPath>
<clipPath id="clip14">
  <path d="M 268 97 L 281 97 L 281 110.589844 L 268 110.589844 Z M 268 97 "/>
</clipPath>
<clipPath id="clip15">
  <path d="M 284 97 L 299 97 L 299 110.589844 L 284 110.589844 Z M 284 97 "/>
</clipPath>
</defs>
<g id="surface1">
<path style=" stroke:none;fill-rule:nonzero;fill:rgb(13.699341%,12.199402%,12.5%);fill-opacity:1;" d="M 0 88.015625 L 7.296875 88.015625 L 7.296875 87.140625 C 6.386719 87.140625 5.933594 86.847656 5.933594 86.265625 L 5.933594 70.066406 L 6.03125 70.066406 L 15.613281 88.015625 L 15.761719 88.015625 L 25.539063 70.113281 L 25.636719 70.113281 L 25.636719 86.265625 C 25.636719 86.847656 25.199219 87.140625 24.324219 87.140625 L 24.324219 88.015625 L 31.960938 88.015625 L 31.960938 87.140625 C 31.703125 87.140625 31.472656 87.074219 31.28125 86.945313 C 31.085938 86.785156 30.988281 86.558594 30.988281 86.265625 L 30.988281 64.082031 C 30.988281 63.789063 31.085938 63.59375 31.28125 63.496094 C 31.472656 63.367188 31.703125 63.300781 31.960938 63.300781 L 31.960938 62.425781 L 22.960938 62.425781 L 22.960938 63.300781 C 23.382813 63.300781 23.59375 63.480469 23.59375 63.835938 C 23.59375 64.03125 23.527344 64.257813 23.398438 64.519531 C 23.300781 64.746094 23.136719 65.070313 22.914063 65.492188 L 15.90625 77.996094 L 8.949219 65.347656 C 8.785156 65.054688 8.644531 64.777344 8.511719 64.519531 C 8.382813 64.257813 8.316406 64.046875 8.316406 63.886719 C 8.316406 63.691406 8.398438 63.542969 8.5625 63.449219 C 8.757813 63.351563 8.933594 63.300781 9.097656 63.300781 L 9.097656 62.425781 L 0 62.425781 L 0 63.300781 C 0.257813 63.300781 0.484375 63.367188 0.679688 63.496094 C 0.875 63.59375 0.972656 63.789063 0.972656 64.082031 L 0.972656 86.265625 C 0.972656 86.558594 0.875 86.785156 0.679688 86.945313 C 0.484375 87.074219 0.257813 87.140625 0 87.140625 L 0 88.015625 "/>
<path style=" stroke:none;fill-rule:nonzero;fill:rgb(13.699341%,12.199402%,12.5%);fill-opacity:1;" d="M 47.429688 62.429688 L 39.453125 62.429688 L 39.453125 63.304688 C 40.359375 63.304688 40.8125 63.59375 40.8125 64.179688 L 40.8125 78.53125 C 40.8125 80.445313 41.089844 82.035156 41.640625 83.296875 C 42.195313 84.53125 43.019531 85.519531 44.121094 86.265625 C 45.222656 87.011719 46.585938 87.511719 48.207031 87.773438 C 49.863281 88.03125 51.761719 88.160156 53.898438 88.160156 C 56.039063 88.160156 57.921875 88.03125 59.542969 87.773438 C 61.199219 87.511719 62.574219 87.011719 63.675781 86.265625 C 64.78125 85.519531 65.605469 84.53125 66.160156 83.296875 C 66.710938 82.035156 66.988281 80.445313 66.988281 78.53125 L 66.988281 64.179688 C 66.988281 63.59375 67.375 63.304688 68.15625 63.304688 L 68.15625 62.429688 L 60.371094 62.429688 L 60.371094 63.304688 C 61.34375 63.304688 61.828125 63.59375 61.828125 64.179688 L 61.828125 78.773438 C 61.828125 80.816406 61.164063 82.226563 59.835938 83.003906 C 58.539063 83.75 56.625 84.125 54.09375 84.125 C 51.5625 84.125 49.636719 83.75 48.304688 83.003906 C 47.007813 82.226563 46.359375 80.816406 46.359375 78.773438 L 46.359375 64.179688 C 46.359375 63.59375 46.714844 63.304688 47.429688 63.304688 L 47.429688 62.429688 "/>
<path style=" stroke:none;fill-rule:nonzero;fill:rgb(13.699341%,12.199402%,12.5%);fill-opacity:1;" d="M 101.722656 63.886719 L 101.136719 63.542969 C 100.976563 63.644531 100.8125 63.753906 100.652344 63.886719 C 100.488281 64.015625 100.261719 64.082031 99.96875 64.082031 C 99.808594 64.082031 99.386719 63.984375 98.707031 63.789063 C 98.054688 63.5625 97.230469 63.332031 96.222656 63.109375 C 95.21875 62.847656 94.066406 62.621094 92.769531 62.425781 C 91.472656 62.230469 90.113281 62.132813 88.683594 62.132813 C 86.414063 62.132813 84.335938 62.441406 82.457031 63.058594 C 80.605469 63.644531 79.019531 64.5 77.691406 65.636719 C 76.359375 66.773438 75.320313 68.152344 74.578125 69.773438 C 73.863281 71.359375 73.503906 73.175781 73.503906 75.222656 C 73.503906 77.265625 73.863281 79.097656 74.578125 80.71875 C 75.320313 82.308594 76.359375 83.667969 77.691406 84.804688 C 79.019531 85.90625 80.605469 86.75 82.457031 87.335938 C 84.335938 87.886719 86.414063 88.160156 88.683594 88.160156 C 89.851563 88.160156 91.035156 88.128906 92.234375 88.066406 C 93.46875 88 94.683594 87.835938 95.886719 87.578125 C 97.117188 87.285156 98.316406 86.898438 99.484375 86.410156 C 100.683594 85.921875 101.820313 85.308594 102.890625 84.5625 L 102.890625 83.785156 C 102.628906 83.65625 102.402344 83.539063 102.210938 83.441406 C 102.015625 83.347656 101.917969 83.132813 101.917969 82.808594 L 101.917969 77.3125 C 101.917969 76.894531 101.996094 76.617188 102.160156 76.484375 C 102.320313 76.355469 102.726563 76.242188 103.375 76.144531 L 103.375 75.269531 L 91.214844 75.269531 C 90.761719 75.269531 90.417969 75.203125 90.195313 75.074219 C 89.964844 74.914063 89.820313 74.554688 89.753906 74.003906 L 88.878906 74.003906 L 88.878906 80.234375 L 89.753906 80.234375 C 89.820313 79.582031 89.964844 79.160156 90.195313 78.964844 C 90.417969 78.773438 90.761719 78.675781 91.214844 78.675781 L 97.441406 78.675781 L 97.441406 82.859375 C 96.402344 83.214844 95.136719 83.558594 93.644531 83.878906 C 92.1875 84.171875 90.53125 84.320313 88.683594 84.320313 C 87.480469 84.320313 86.285156 84.15625 85.082031 83.832031 C 83.917969 83.476563 82.863281 82.941406 81.917969 82.226563 C 81.015625 81.515625 80.269531 80.589844 79.683594 79.453125 C 79.132813 78.285156 78.855469 76.90625 78.855469 75.320313 C 78.855469 73.699219 79.132813 72.316406 79.683594 71.183594 C 80.269531 70.046875 81.015625 69.121094 81.917969 68.410156 C 82.863281 67.695313 83.917969 67.175781 85.082031 66.855469 C 86.285156 66.496094 87.480469 66.320313 88.683594 66.320313 C 89.65625 66.320313 90.675781 66.382813 91.75 66.511719 C 92.851563 66.644531 93.855469 66.855469 94.765625 67.144531 C 95.703125 67.40625 96.46875 67.730469 97.050781 68.117188 C 97.667969 68.507813 97.976563 68.945313 97.976563 69.433594 C 97.976563 69.625 97.945313 69.824219 97.878906 70.015625 L 98.851563 70.308594 L 101.722656 63.886719 "/>
<path style=" stroke:none;fill-rule:nonzero;fill:rgb(13.699341%,12.199402%,12.5%);fill-opacity:1;" d="M 136.847656 63.886719 L 136.261719 63.542969 C 136.101563 63.644531 135.9375 63.753906 135.777344 63.886719 C 135.613281 64.015625 135.386719 64.082031 135.097656 64.082031 C 134.933594 64.082031 134.511719 63.984375 133.832031 63.789063 C 133.183594 63.5625 132.355469 63.332031 131.347656 63.109375 C 130.34375 62.847656 129.195313 62.621094 127.894531 62.425781 C 126.597656 62.230469 125.234375 62.132813 123.808594 62.132813 C 121.539063 62.132813 119.460938 62.441406 117.578125 63.058594 C 115.734375 63.644531 114.144531 64.5 112.8125 65.636719 C 111.484375 66.773438 110.445313 68.152344 109.699219 69.773438 C 108.988281 71.359375 108.628906 73.175781 108.628906 75.222656 C 108.628906 77.265625 108.988281 79.097656 109.699219 80.71875 C 110.445313 82.308594 111.484375 83.667969 112.8125 84.804688 C 114.144531 85.90625 115.734375 86.75 117.578125 87.335938 C 119.460938 87.886719 121.539063 88.160156 123.808594 88.160156 C 124.976563 88.160156 126.160156 88.128906 127.359375 88.066406 C 128.59375 88 129.808594 87.835938 131.007813 87.578125 C 132.242188 87.285156 133.441406 86.898438 134.605469 86.410156 C 135.808594 85.921875 136.945313 85.308594 138.011719 84.5625 L 138.011719 83.785156 C 137.753906 83.65625 137.527344 83.539063 137.332031 83.441406 C 137.136719 83.347656 137.039063 83.132813 137.039063 82.808594 L 137.039063 77.3125 C 137.039063 76.894531 137.121094 76.617188 137.285156 76.484375 C 137.445313 76.355469 137.851563 76.242188 138.5 76.144531 L 138.5 75.269531 L 126.339844 75.269531 C 125.882813 75.269531 125.542969 75.203125 125.316406 75.074219 C 125.089844 74.914063 124.945313 74.554688 124.878906 74.003906 L 124.003906 74.003906 L 124.003906 80.234375 L 124.878906 80.234375 C 124.945313 79.582031 125.089844 79.160156 125.316406 78.964844 C 125.542969 78.773438 125.882813 78.675781 126.339844 78.675781 L 132.566406 78.675781 L 132.566406 82.859375 C 131.527344 83.214844 130.261719 83.558594 128.769531 83.878906 C 127.3125 84.171875 125.65625 84.320313 123.808594 84.320313 C 122.609375 84.320313 121.40625 84.15625 120.207031 83.832031 C 119.039063 83.476563 117.988281 82.941406 117.046875 82.226563 C 116.136719 81.515625 115.390625 80.589844 114.808594 79.453125 C 114.257813 78.285156 113.980469 76.90625 113.980469 75.320313 C 113.980469 73.699219 114.257813 72.316406 114.808594 71.183594 C 115.390625 70.046875 116.136719 69.121094 117.046875 68.410156 C 117.988281 67.695313 119.039063 67.175781 120.207031 66.855469 C 121.40625 66.496094 122.609375 66.320313 123.808594 66.320313 C 124.78125 66.320313 125.804688 66.382813 126.875 66.511719 C 127.976563 66.644531 128.980469 66.855469 129.890625 67.144531 C 130.828125 67.40625 131.59375 67.730469 132.175781 68.117188 C 132.792969 68.507813 133.101563 68.945313 133.101563 69.433594 C 133.101563 69.625 133.066406 69.824219 133.003906 70.015625 L 133.976563 70.308594 L 136.847656 63.886719 "/>
<path style=" stroke:none;fill-rule:evenodd;fill:rgb(13.699341%,12.199402%,12.5%);fill-opacity:1;" d="M 170.65625 65.734375 C 171.789063 65.734375 172.746094 66.007813 173.527344 66.5625 C 174.335938 67.082031 174.742188 67.90625 174.742188 69.042969 C 174.742188 70.175781 174.335938 71.023438 173.527344 71.574219 C 172.746094 72.089844 171.789063 72.351563 170.65625 72.351563 C 169.523438 72.351563 168.546875 72.089844 167.738281 71.574219 C 166.957031 71.023438 166.570313 70.175781 166.570313 69.042969 C 166.570313 67.90625 166.957031 67.082031 167.738281 66.5625 C 168.546875 66.007813 169.523438 65.734375 170.65625 65.734375 M 164.332031 79.890625 C 164.332031 79.046875 164.511719 78.351563 164.867188 77.800781 C 165.222656 77.214844 165.695313 76.746094 166.277344 76.386719 C 166.859375 76.03125 167.492188 75.773438 168.175781 75.609375 C 168.886719 75.449219 169.585938 75.367188 170.265625 75.367188 C 171.273438 75.367188 172.019531 75.53125 172.503906 75.851563 C 172.992188 76.175781 173.382813 76.617188 173.671875 77.164063 C 173.964844 77.6875 174.226563 78.289063 174.453125 78.964844 C 174.675781 79.617188 175.035156 80.28125 175.523438 80.960938 C 175.457031 81.382813 175.261719 81.804688 174.9375 82.226563 C 174.648438 82.617188 174.257813 82.972656 173.769531 83.296875 C 173.28125 83.621094 172.730469 83.894531 172.117188 84.125 C 171.53125 84.320313 170.917969 84.417969 170.265625 84.417969 C 169.585938 84.417969 168.886719 84.335938 168.175781 84.171875 C 167.492188 84.007813 166.859375 83.75 166.277344 83.394531 C 165.695313 83.039063 165.222656 82.566406 164.867188 81.984375 C 164.511719 81.398438 164.332031 80.703125 164.332031 79.890625 M 186.953125 88.160156 L 186.953125 82.226563 L 186.46875 82.226563 C 186.46875 82.582031 186.402344 82.90625 186.273438 83.199219 C 186.175781 83.492188 185.898438 83.636719 185.445313 83.636719 C 184.894531 83.605469 184.296875 83.363281 183.644531 82.90625 C 183.027344 82.421875 182.496094 81.886719 182.039063 81.300781 C 182.136719 80.976563 182.300781 80.570313 182.523438 80.085938 C 182.753906 79.597656 183.011719 79.128906 183.304688 78.675781 C 183.597656 78.191406 183.921875 77.785156 184.277344 77.460938 C 184.636719 77.132813 185.007813 76.972656 185.398438 76.972656 C 185.753906 76.972656 185.996094 77.101563 186.128906 77.363281 C 186.289063 77.621094 186.402344 77.847656 186.46875 78.042969 L 186.953125 78.042969 L 186.953125 70.550781 L 186.46875 70.550781 C 186.46875 70.679688 186.402344 70.792969 186.273438 70.890625 C 186.140625 70.957031 185.996094 71.023438 185.835938 71.085938 C 185.578125 71.152344 185.171875 71.359375 184.617188 71.71875 C 184.097656 72.042969 183.515625 72.496094 182.867188 73.082031 C 182.21875 73.632813 181.570313 74.28125 180.921875 75.027344 C 180.273438 75.773438 179.703125 76.585938 179.21875 77.460938 C 178.992188 77.230469 178.796875 76.941406 178.636719 76.585938 C 178.472656 76.195313 178.296875 75.804688 178.097656 75.414063 C 177.90625 74.996094 177.675781 74.589844 177.417969 74.199219 C 177.15625 73.777344 176.820313 73.421875 176.398438 73.128906 C 177.140625 72.871094 177.824219 72.335938 178.441406 71.523438 C 179.089844 70.679688 179.410156 69.691406 179.410156 68.554688 C 179.410156 67.421875 179.136719 66.464844 178.585938 65.6875 C 178.066406 64.875 177.386719 64.210938 176.542969 63.691406 C 175.734375 63.140625 174.808594 62.75 173.769531 62.523438 C 172.730469 62.265625 171.695313 62.132813 170.65625 62.132813 C 169.652344 62.132813 168.613281 62.265625 167.542969 62.523438 C 166.503906 62.75 165.566406 63.140625 164.71875 63.691406 C 163.910156 64.210938 163.230469 64.875 162.679688 65.6875 C 162.160156 66.464844 161.898438 67.421875 161.898438 68.554688 C 161.898438 69.660156 162.257813 70.632813 162.96875 71.476563 C 163.714844 72.289063 164.59375 72.851563 165.597656 73.175781 L 165.597656 73.277344 C 164.65625 73.535156 163.78125 73.859375 162.96875 74.25 C 162.160156 74.636719 161.460938 75.125 160.878906 75.707031 C 160.296875 76.289063 159.824219 76.988281 159.46875 77.800781 C 159.144531 78.578125 158.980469 79.503906 158.980469 80.570313 C 158.980469 81.933594 159.304688 83.101563 159.953125 84.078125 C 160.601563 85.046875 161.414063 85.839844 162.386719 86.460938 C 163.390625 87.074219 164.492188 87.511719 165.695313 87.773438 C 166.925781 88.03125 168.128906 88.160156 169.296875 88.160156 C 170.332031 88.160156 171.242188 88.113281 172.019531 88.015625 C 172.828125 87.953125 173.574219 87.789063 174.257813 87.53125 C 174.96875 87.238281 175.648438 86.882813 176.300781 86.460938 C 176.980469 86.007813 177.710938 85.453125 178.488281 84.804688 C 178.878906 85.226563 179.300781 85.648438 179.753906 86.070313 C 180.238281 86.460938 180.808594 86.816406 181.457031 87.140625 C 182.136719 87.464844 182.917969 87.722656 183.792969 87.917969 C 184.699219 88.082031 185.753906 88.160156 186.953125 88.160156 "/>
<path style=" stroke:none;fill-rule:evenodd;fill:rgb(13.699341%,12.199402%,12.5%);fill-opacity:1;" d="M 217.359375 72.449219 L 217.359375 66.609375 L 226.648438 66.609375 C 228.109375 66.609375 229.308594 66.804688 230.25 67.195313 C 231.222656 67.550781 231.710938 68.328125 231.710938 69.53125 C 231.710938 70.730469 231.222656 71.523438 230.25 71.914063 C 229.308594 72.269531 228.109375 72.449219 226.648438 72.449219 Z M 217.359375 83.539063 L 217.359375 76.632813 L 226.648438 76.632813 C 228.691406 76.632813 230.152344 76.957031 231.027344 77.605469 C 231.9375 78.21875 232.390625 79.046875 232.390625 80.085938 C 232.390625 81.125 231.9375 81.96875 231.027344 82.617188 C 230.152344 83.230469 228.691406 83.539063 226.648438 83.539063 Z M 225.675781 62.425781 L 210.449219 62.425781 L 210.449219 63.300781 C 211.359375 63.300781 211.8125 63.59375 211.8125 64.175781 L 211.8125 86.261719 C 211.8125 86.847656 211.359375 87.140625 210.449219 87.140625 L 210.449219 88.015625 L 228.304688 88.015625 C 229.828125 88.015625 231.191406 87.851563 232.390625 87.53125 C 233.589844 87.175781 234.597656 86.683594 235.40625 86.070313 C 236.25 85.453125 236.882813 84.738281 237.304688 83.929688 C 237.726563 83.085938 237.9375 82.175781 237.9375 81.203125 C 237.9375 79.355469 237.402344 77.945313 236.332031 76.972656 C 235.292969 75.964844 234.011719 75.238281 232.488281 74.785156 L 232.488281 74.683594 C 233.785156 74.230469 234.902344 73.597656 235.84375 72.789063 C 236.785156 71.945313 237.257813 70.761719 237.257813 69.238281 C 237.257813 67.96875 236.929688 66.917969 236.28125 66.074219 C 235.632813 65.199219 234.773438 64.5 233.703125 63.984375 C 232.632813 63.429688 231.402344 63.042969 230.003906 62.8125 C 228.609375 62.554688 227.167969 62.425781 225.675781 62.425781 "/>
<path style=" stroke:none;fill-rule:nonzero;fill:rgb(13.699341%,12.199402%,12.5%);fill-opacity:1;" d="M 270.628906 67.679688 L 270.628906 61.257813 L 269.753906 61.257813 C 269.753906 61.617188 269.609375 61.910156 269.316406 62.132813 C 269.054688 62.328125 268.585938 62.425781 267.902344 62.425781 L 245.722656 62.425781 L 245.722656 63.300781 C 245.945313 63.300781 246.140625 63.382813 246.304688 63.542969 C 246.496094 63.675781 246.597656 63.886719 246.597656 64.175781 L 246.597656 86.265625 C 246.597656 86.558594 246.496094 86.78125 246.304688 86.945313 C 246.140625 87.074219 245.945313 87.140625 245.722656 87.140625 L 245.722656 88.015625 L 268.390625 88.015625 C 268.875 88.015625 269.265625 88.046875 269.558594 88.113281 C 269.882813 88.175781 270.046875 88.453125 270.046875 88.941406 L 270.921875 88.941406 L 270.921875 82.273438 L 270.046875 82.273438 C 270.046875 82.664063 269.882813 82.972656 269.558594 83.199219 C 269.265625 83.425781 268.875 83.539063 268.390625 83.539063 L 252.140625 83.539063 L 252.140625 76.824219 L 261.675781 76.824219 C 262.324219 76.824219 262.828125 76.941406 263.1875 77.164063 C 263.539063 77.359375 263.71875 77.832031 263.71875 78.578125 L 264.59375 78.578125 L 264.59375 70.988281 L 263.71875 70.988281 C 263.71875 71.734375 263.539063 72.203125 263.1875 72.402344 C 262.828125 72.5625 262.324219 72.644531 261.675781 72.644531 L 252.140625 72.644531 L 252.140625 66.609375 L 267.902344 66.609375 C 268.585938 66.609375 269.054688 66.707031 269.316406 66.902344 C 269.609375 67.0625 269.753906 67.324219 269.753906 67.679688 L 270.628906 67.679688 "/>
<path style=" stroke:none;fill-rule:evenodd;fill:rgb(13.699341%,12.199402%,12.5%);fill-opacity:1;" d="M 293.347656 78.09375 L 289.261719 69.042969 L 284.6875 78.09375 Z M 275.007813 87.140625 C 275.429688 87.074219 275.753906 86.863281 275.980469 86.507813 C 276.238281 86.152344 276.480469 85.746094 276.710938 85.292969 L 285.710938 66.367188 C 285.933594 65.945313 286.132813 65.558594 286.292969 65.199219 C 286.488281 64.84375 286.585938 64.535156 286.585938 64.273438 C 286.585938 63.949219 286.472656 63.722656 286.242188 63.59375 C 286.015625 63.464844 285.773438 63.367188 285.515625 63.304688 L 285.515625 62.429688 L 293.738281 62.429688 L 293.738281 63.304688 C 293.507813 63.367188 293.28125 63.464844 293.058594 63.59375 C 292.828125 63.691406 292.714844 63.917969 292.714844 64.273438 C 292.714844 64.535156 292.761719 64.796875 292.863281 65.054688 C 292.992188 65.3125 293.167969 65.652344 293.394531 66.074219 L 303.515625 85.875 C 303.675781 86.234375 303.886719 86.492188 304.144531 86.65625 C 304.4375 86.816406 304.761719 86.980469 305.117188 87.140625 L 305.117188 88.015625 L 296.558594 88.015625 L 296.558594 87.140625 C 296.6875 87.140625 296.851563 87.09375 297.046875 86.992188 C 297.238281 86.898438 297.335938 86.75 297.335938 86.558594 C 297.335938 86.234375 297.207031 85.8125 296.945313 85.292969 L 295.097656 81.695313 L 283.226563 81.695313 L 281.476563 85.148438 C 281.152344 85.828125 280.992188 86.3125 280.992188 86.605469 C 280.992188 86.964844 281.296875 87.140625 281.914063 87.140625 L 281.914063 88.015625 L 275.007813 88.015625 L 275.007813 87.140625 "/>
<g clip-path="url(#clip1)" clip-rule="nonzero">
<path style=" stroke:none;fill-rule:nonzero;fill:rgb(13.699341%,12.199402%,12.5%);fill-opacity:1;" d="M 310.859375 88.015625 L 318.058594 88.015625 L 318.058594 87.140625 C 317.316406 87.140625 316.941406 86.847656 316.941406 86.265625 L 316.941406 70.113281 L 331.78125 85.582031 C 332.300781 86.105469 332.558594 86.476563 332.558594 86.703125 C 332.558594 86.996094 332.347656 87.140625 331.925781 87.140625 L 331.925781 88.015625 L 339.804688 88.015625 L 339.804688 87.140625 C 339.191406 87.140625 338.882813 86.847656 338.882813 86.265625 L 338.882813 64.175781 C 338.882813 63.59375 339.191406 63.300781 339.804688 63.300781 L 339.804688 62.425781 L 332.460938 62.425781 L 332.460938 63.300781 C 333.304688 63.300781 333.722656 63.59375 333.722656 64.175781 L 333.722656 79.648438 L 319.761719 65.152344 C 319.113281 64.5 318.789063 64.046875 318.789063 63.789063 C 318.789063 63.464844 318.921875 63.300781 319.175781 63.300781 L 319.175781 62.425781 L 310.859375 62.425781 L 310.859375 63.300781 C 311.476563 63.300781 311.785156 63.59375 311.785156 64.175781 L 311.785156 86.265625 C 311.785156 86.847656 311.476563 87.140625 310.859375 87.140625 L 310.859375 88.015625 "/>
</g>
<path style=" stroke:none;fill-rule:nonzero;fill:rgb(13.699341%,12.199402%,12.5%);fill-opacity:1;" d="M 169.894531 0 L 177.015625 21.914063 L 200.0625 21.914063 L 181.417969 35.457031 L 188.539063 57.375 L 169.894531 43.832031 L 151.253906 57.375 L 158.375 35.457031 L 139.730469 21.914063 L 162.777344 21.914063 "/>
<g clip-path="url(#clip2)" clip-rule="nonzero">
<path style=" stroke:none;fill-rule:nonzero;fill:rgb(13.699341%,12.199402%,12.5%);fill-opacity:1;" d="M 40.96875 110.144531 L 44.878906 110.144531 L 44.878906 109.71875 C 44.46875 109.71875 44.265625 109.578125 44.265625 109.296875 L 44.265625 98.609375 C 44.265625 98.324219 44.46875 98.183594 44.878906 98.183594 L 44.878906 97.757813 L 40.96875 97.757813 L 40.96875 98.183594 C 41.378906 98.183594 41.582031 98.324219 41.582031 98.609375 L 41.582031 109.296875 C 41.582031 109.578125 41.378906 109.71875 40.96875 109.71875 L 40.96875 110.144531 "/>
</g>
<g clip-path="url(#clip3)" clip-rule="nonzero">
<path style=" stroke:none;fill-rule:nonzero;fill:rgb(13.699341%,12.199402%,12.5%);fill-opacity:1;" d="M 56.085938 109.296875 L 56.085938 99.925781 L 59.96875 99.925781 C 60.113281 99.925781 60.246094 99.964844 60.375 100.042969 C 60.511719 100.121094 60.585938 100.273438 60.585938 100.488281 L 61.007813 100.488281 L 61.007813 97.191406 L 60.585938 97.191406 C 60.585938 97.414063 60.511719 97.5625 60.375 97.640625 C 60.246094 97.71875 60.113281 97.757813 59.96875 97.757813 L 49.519531 97.757813 C 49.375 97.757813 49.234375 97.71875 49.09375 97.640625 C 48.964844 97.5625 48.902344 97.414063 48.902344 97.191406 L 48.480469 97.191406 L 48.480469 100.488281 L 48.902344 100.488281 C 48.902344 100.273438 48.964844 100.121094 49.09375 100.042969 C 49.234375 99.964844 49.375 99.925781 49.519531 99.925781 L 53.402344 99.925781 L 53.402344 109.296875 C 53.402344 109.4375 53.355469 109.550781 53.261719 109.625 C 53.183594 109.691406 53.089844 109.71875 52.976563 109.71875 L 52.976563 110.144531 L 56.605469 110.144531 L 56.605469 109.71875 C 56.257813 109.71875 56.085938 109.578125 56.085938 109.296875 "/>
</g>
<path style=" stroke:none;fill-rule:nonzero;fill:rgb(13.699341%,12.199402%,12.5%);fill-opacity:1;" d="M 63.738281 103.386719 L 63.738281 104.140625 C 64.226563 104.03125 64.695313 103.832031 65.152344 103.550781 C 65.609375 103.269531 66.007813 102.929688 66.351563 102.539063 C 66.699219 102.144531 66.972656 101.714844 67.175781 101.242188 C 67.398438 100.753906 67.507813 100.253906 67.507813 99.734375 C 67.507813 99.074219 67.34375 98.519531 67.011719 98.066406 C 66.699219 97.609375 66.226563 97.378906 65.597656 97.378906 C 65.191406 97.378906 64.824219 97.542969 64.492188 97.875 C 64.175781 98.203125 64.023438 98.597656 64.023438 99.054688 C 64.023438 99.523438 64.160156 99.890625 64.445313 100.160156 C 64.742188 100.410156 65.089844 100.535156 65.480469 100.535156 C 65.609375 100.535156 65.738281 100.542969 65.882813 100.558594 C 66.023438 100.574219 66.109375 100.636719 66.140625 100.746094 C 66.171875 101.03125 66.109375 101.3125 65.953125 101.597656 C 65.796875 101.878906 65.59375 102.144531 65.339844 102.394531 C 65.105469 102.628906 64.839844 102.84375 64.539063 103.03125 C 64.238281 103.203125 63.972656 103.324219 63.738281 103.386719 "/>
<g clip-path="url(#clip4)" clip-rule="nonzero">
<path style=" stroke:none;fill-rule:nonzero;fill:rgb(13.699341%,12.199402%,12.5%);fill-opacity:1;" d="M 71.558594 109.109375 L 71.886719 109.296875 C 71.980469 109.171875 72.085938 109.109375 72.191406 109.109375 C 72.363281 109.109375 72.570313 109.171875 72.804688 109.296875 C 73.039063 109.40625 73.355469 109.539063 73.746094 109.695313 C 74.15625 109.835938 74.65625 109.964844 75.253906 110.074219 C 75.867188 110.167969 76.617188 110.214844 77.515625 110.214844 C 78.15625 110.214844 78.847656 110.167969 79.585938 110.074219 C 80.339844 109.964844 81.039063 109.757813 81.683594 109.460938 C 82.328125 109.164063 82.859375 108.753906 83.285156 108.234375 C 83.722656 107.71875 83.941406 107.050781 83.941406 106.234375 C 83.941406 105.527344 83.800781 104.957031 83.519531 104.511719 C 83.253906 104.078125 82.890625 103.730469 82.433594 103.480469 C 81.996094 103.210938 81.484375 103.023438 80.90625 102.914063 C 80.339844 102.789063 79.761719 102.703125 79.160156 102.65625 C 78.566406 102.609375 77.976563 102.570313 77.398438 102.539063 C 76.832031 102.507813 76.324219 102.445313 75.867188 102.347656 C 75.429688 102.253906 75.066406 102.113281 74.78125 101.925781 C 74.515625 101.738281 74.382813 101.453125 74.382813 101.078125 C 74.382813 100.808594 74.476563 100.589844 74.664063 100.417969 C 74.871094 100.230469 75.117188 100.082031 75.417969 99.96875 C 75.71875 99.863281 76.046875 99.785156 76.40625 99.734375 C 76.78125 99.671875 77.144531 99.640625 77.492188 99.640625 C 77.949219 99.640625 78.402344 99.691406 78.855469 99.785156 C 79.3125 99.863281 79.734375 99.96875 80.128906 100.113281 C 80.519531 100.253906 80.859375 100.417969 81.140625 100.605469 C 81.441406 100.78125 81.652344 100.960938 81.777344 101.148438 C 81.871094 101.292969 81.933594 101.46875 81.964844 101.691406 L 82.199219 101.785156 L 83.824219 98.839844 L 83.542969 98.652344 C 83.449219 98.746094 83.289063 98.792969 83.074219 98.792969 C 82.867188 98.792969 82.609375 98.730469 82.292969 98.605469 C 81.996094 98.480469 81.621094 98.34375 81.164063 98.207031 C 80.726563 98.066406 80.199219 97.929688 79.585938 97.804688 C 78.976563 97.679688 78.253906 97.617188 77.417969 97.617188 C 76.449219 97.617188 75.597656 97.734375 74.878906 97.96875 C 74.15625 98.191406 73.558594 98.480469 73.085938 98.839844 C 72.617188 99.203125 72.261719 99.617188 72.027344 100.085938 C 71.808594 100.558594 71.699219 101.039063 71.699219 101.527344 C 71.699219 102.25 71.832031 102.835938 72.097656 103.292969 C 72.382813 103.730469 72.742188 104.082031 73.183594 104.351563 C 73.636719 104.601563 74.148438 104.78125 74.710938 104.894531 C 75.292969 105.003906 75.882813 105.082031 76.476563 105.128906 C 77.074219 105.171875 77.65625 105.214844 78.21875 105.246094 C 78.800781 105.261719 79.3125 105.308594 79.75 105.386719 C 80.207031 105.464844 80.566406 105.589844 80.835938 105.761719 C 81.117188 105.933594 81.257813 106.203125 81.257813 106.566406 C 81.257813 106.925781 81.109375 107.214844 80.8125 107.4375 C 80.515625 107.65625 80.160156 107.828125 79.75 107.953125 C 79.34375 108.082031 78.929688 108.167969 78.503906 108.210938 C 78.078125 108.246094 77.734375 108.257813 77.46875 108.257813 C 77.105469 108.257813 76.699219 108.21875 76.242188 108.140625 C 75.785156 108.046875 75.347656 107.929688 74.925781 107.789063 C 74.515625 107.648438 74.148438 107.488281 73.816406 107.320313 C 73.503906 107.128906 73.289063 106.941406 73.183594 106.753906 C 73.117188 106.640625 73.085938 106.515625 73.085938 106.378906 L 72.851563 106.257813 L 71.558594 109.109375 "/>
</g>
<g clip-path="url(#clip5)" clip-rule="nonzero">
<path style=" stroke:none;fill-rule:evenodd;fill:rgb(13.699341%,12.199402%,12.5%);fill-opacity:1;" d="M 107.351563 103.269531 L 107.351563 99.785156 L 111.421875 99.785156 C 111.988281 99.785156 112.460938 99.828125 112.835938 99.921875 C 113.210938 100 113.511719 100.121094 113.730469 100.277344 C 113.949219 100.433594 114.109375 100.621094 114.203125 100.84375 C 114.296875 101.042969 114.34375 101.273438 114.34375 101.527344 C 114.34375 101.777344 114.296875 102.011719 114.203125 102.234375 C 114.109375 102.4375 113.949219 102.617188 113.730469 102.773438 C 113.511719 102.929688 113.210938 103.054688 112.835938 103.148438 C 112.460938 103.230469 111.988281 103.269531 111.421875 103.269531 Z M 103.980469 97.757813 L 103.980469 98.179688 C 104.433594 98.179688 104.664063 98.324219 104.664063 98.605469 L 104.664063 109.292969 C 104.664063 109.578125 104.433594 109.71875 103.980469 109.71875 L 103.980469 110.144531 L 108.058594 110.144531 L 108.058594 109.71875 C 107.789063 109.71875 107.601563 109.6875 107.492188 109.625 C 107.394531 109.546875 107.351563 109.4375 107.351563 109.292969 L 107.351563 105.105469 L 110.714844 105.105469 L 113.308594 108.777344 C 113.433594 108.953125 113.527344 109.09375 113.589844 109.203125 C 113.652344 109.292969 113.683594 109.382813 113.683594 109.460938 C 113.683594 109.539063 113.628906 109.601563 113.519531 109.648438 C 113.425781 109.695313 113.308594 109.71875 113.164063 109.71875 L 113.164063 110.144531 L 117.570313 110.144531 L 117.570313 109.71875 C 117.441406 109.71875 117.304688 109.703125 117.144531 109.671875 C 117.003906 109.640625 116.878906 109.546875 116.769531 109.390625 L 113.636719 104.914063 C 114.671875 104.726563 115.496094 104.359375 116.109375 103.808594 C 116.722656 103.261719 117.027344 102.464844 117.027344 101.429688 C 117.027344 100.753906 116.910156 100.191406 116.675781 99.734375 C 116.4375 99.265625 116.101563 98.886719 115.660156 98.605469 C 115.222656 98.304688 114.695313 98.09375 114.085938 97.96875 C 113.472656 97.828125 112.789063 97.757813 112.035156 97.757813 L 103.980469 97.757813 "/>
</g>
<g clip-path="url(#clip6)" clip-rule="nonzero">
<path style=" stroke:none;fill-rule:nonzero;fill:rgb(13.699341%,12.199402%,12.5%);fill-opacity:1;" d="M 133.886719 100.300781 L 133.886719 97.191406 L 133.464844 97.191406 C 133.464844 97.363281 133.394531 97.507813 133.253906 97.617188 C 133.125 97.710938 132.898438 97.757813 132.566406 97.757813 L 121.828125 97.757813 L 121.828125 98.183594 C 121.941406 98.183594 122.035156 98.21875 122.113281 98.300781 C 122.207031 98.363281 122.253906 98.464844 122.253906 98.605469 L 122.253906 109.292969 C 122.253906 109.4375 122.207031 109.546875 122.113281 109.625 C 122.035156 109.6875 121.941406 109.71875 121.828125 109.71875 L 121.828125 110.144531 L 132.800781 110.144531 C 133.039063 110.144531 133.226563 110.15625 133.367188 110.191406 C 133.523438 110.222656 133.605469 110.355469 133.605469 110.589844 L 134.027344 110.589844 L 134.027344 107.363281 L 133.605469 107.363281 C 133.605469 107.550781 133.523438 107.699219 133.367188 107.8125 C 133.226563 107.921875 133.039063 107.976563 132.800781 107.976563 L 124.941406 107.976563 L 124.941406 104.726563 L 129.554688 104.726563 C 129.867188 104.726563 130.113281 104.78125 130.285156 104.890625 C 130.457031 104.988281 130.542969 105.214844 130.542969 105.574219 L 130.96875 105.574219 L 130.96875 101.902344 L 130.542969 101.902344 C 130.542969 102.261719 130.457031 102.488281 130.285156 102.585938 C 130.113281 102.664063 129.867188 102.703125 129.554688 102.703125 L 124.941406 102.703125 L 124.941406 99.78125 L 132.566406 99.78125 C 132.898438 99.78125 133.125 99.828125 133.253906 99.925781 C 133.394531 100 133.464844 100.128906 133.464844 100.300781 L 133.886719 100.300781 "/>
</g>
<g clip-path="url(#clip7)" clip-rule="nonzero">
<path style=" stroke:none;fill-rule:nonzero;fill:rgb(13.699341%,12.199402%,12.5%);fill-opacity:1;" d="M 151.5 108.261719 L 149.945313 105.765625 L 149.617188 105.949219 C 149.679688 106.03125 149.710938 106.125 149.710938 106.234375 C 149.710938 106.441406 149.554688 106.65625 149.242188 106.894531 C 148.941406 107.113281 148.5625 107.320313 148.109375 107.503906 C 147.65625 107.679688 147.152344 107.828125 146.601563 107.953125 C 146.054688 108.0625 145.527344 108.117188 145.023438 108.117188 C 144.367188 108.117188 143.726563 108.023438 143.117188 107.835938 C 142.523438 107.648438 141.996094 107.371094 141.539063 107.011719 C 141.101563 106.652344 140.746094 106.210938 140.480469 105.695313 C 140.214844 105.15625 140.078125 104.554688 140.078125 103.878906 C 140.078125 103.203125 140.214844 102.609375 140.480469 102.089844 C 140.746094 101.554688 141.101563 101.109375 141.539063 100.746094 C 141.996094 100.386719 142.523438 100.109375 143.117188 99.925781 C 143.726563 99.734375 144.367188 99.640625 145.023438 99.640625 C 145.417969 99.640625 145.84375 99.6875 146.296875 99.78125 C 146.765625 99.875 147.207031 99.992188 147.613281 100.136719 C 148.039063 100.277344 148.394531 100.441406 148.675781 100.628906 C 148.957031 100.804688 149.117188 100.976563 149.148438 101.148438 C 149.160156 101.210938 149.171875 101.265625 149.171875 101.3125 C 149.1875 101.359375 149.195313 101.40625 149.195313 101.453125 L 149.429688 101.617188 L 151.265625 98.769531 L 150.910156 98.488281 C 150.878906 98.535156 150.835938 98.597656 150.773438 98.675781 C 150.722656 98.753906 150.660156 98.792969 150.582031 98.792969 C 150.519531 98.792969 150.347656 98.730469 150.0625 98.605469 C 149.78125 98.480469 149.398438 98.347656 148.910156 98.203125 C 148.425781 98.0625 147.851563 97.929688 147.191406 97.804688 C 146.546875 97.679688 145.824219 97.617188 145.023438 97.617188 C 144.035156 97.617188 143.085938 97.75 142.175781 98.015625 C 141.265625 98.28125 140.457031 98.683594 139.75 99.21875 C 139.058594 99.75 138.511719 100.417969 138.101563 101.21875 C 137.695313 102.003906 137.488281 102.914063 137.488281 103.949219 C 137.488281 105.003906 137.695313 105.917969 138.101563 106.707031 C 138.511719 107.488281 139.058594 108.152344 139.75 108.683594 C 140.457031 109.199219 141.265625 109.582031 142.175781 109.835938 C 143.085938 110.085938 144.035156 110.214844 145.023438 110.214844 C 145.777344 110.214844 146.503906 110.125 147.191406 109.953125 C 147.882813 109.78125 148.496094 109.578125 149.027344 109.34375 C 149.578125 109.109375 150.023438 108.894531 150.367188 108.707031 C 150.730469 108.519531 150.957031 108.425781 151.054688 108.425781 C 151.101563 108.425781 151.140625 108.429688 151.171875 108.449219 L 151.3125 108.449219 L 151.5 108.261719 "/>
</g>
<g clip-path="url(#clip8)" clip-rule="nonzero">
<path style=" stroke:none;fill-rule:evenodd;fill:rgb(13.699341%,12.199402%,12.5%);fill-opacity:1;" d="M 163.085938 99.785156 C 163.679688 99.785156 164.277344 99.875 164.875 100.066406 C 165.472656 100.253906 166.003906 100.527344 166.476563 100.886719 C 166.960938 101.234375 167.355469 101.667969 167.652344 102.183594 C 167.949219 102.703125 168.097656 103.292969 168.097656 103.953125 C 168.097656 104.609375 167.949219 105.199219 167.652344 105.71875 C 167.355469 106.234375 166.960938 106.675781 166.476563 107.035156 C 166.003906 107.382813 165.472656 107.648438 164.875 107.835938 C 164.277344 108.023438 163.679688 108.121094 163.085938 108.121094 C 162.488281 108.121094 161.890625 108.023438 161.296875 107.835938 C 160.699219 107.648438 160.15625 107.382813 159.671875 107.035156 C 159.199219 106.675781 158.816406 106.234375 158.519531 105.71875 C 158.21875 105.199219 158.066406 104.609375 158.066406 103.953125 C 158.066406 103.292969 158.21875 102.703125 158.519531 102.183594 C 158.816406 101.667969 159.199219 101.234375 159.671875 100.886719 C 160.15625 100.527344 160.699219 100.253906 161.296875 100.066406 C 161.890625 99.875 162.488281 99.785156 163.085938 99.785156 M 163.085938 97.617188 C 162.222656 97.617188 161.34375 97.75 160.445313 98.015625 C 159.554688 98.265625 158.738281 98.652344 158 99.171875 C 157.257813 99.6875 156.65625 100.347656 156.183594 101.148438 C 155.714844 101.933594 155.480469 102.867188 155.480469 103.953125 C 155.480469 105.035156 155.714844 105.976563 156.183594 106.777344 C 156.65625 107.558594 157.257813 108.210938 158 108.730469 C 158.738281 109.25 159.554688 109.628906 160.445313 109.859375 C 161.34375 110.097656 162.222656 110.214844 163.085938 110.214844 C 163.949219 110.214844 164.828125 110.097656 165.722656 109.859375 C 166.617188 109.628906 167.433594 109.25 168.171875 108.730469 C 168.910156 108.210938 169.515625 107.558594 169.984375 106.777344 C 170.457031 105.976563 170.691406 105.035156 170.691406 103.953125 C 170.691406 102.867188 170.457031 101.933594 169.984375 101.148438 C 169.515625 100.347656 168.910156 99.6875 168.171875 99.171875 C 167.433594 98.652344 166.617188 98.265625 165.722656 98.015625 C 164.828125 97.75 163.949219 97.617188 163.085938 97.617188 "/>
</g>
<g clip-path="url(#clip9)" clip-rule="nonzero">
<path style=" stroke:none;fill-rule:nonzero;fill:rgb(13.699341%,12.199402%,12.5%);fill-opacity:1;" d="M 175.023438 110.144531 L 178.554688 110.144531 L 178.554688 109.71875 C 178.113281 109.71875 177.894531 109.578125 177.894531 109.296875 L 177.894531 101.457031 L 177.941406 101.457031 L 182.582031 110.144531 L 182.652344 110.144531 L 187.386719 101.476563 L 187.433594 101.476563 L 187.433594 109.296875 C 187.433594 109.578125 187.21875 109.71875 186.796875 109.71875 L 186.796875 110.144531 L 190.496094 110.144531 L 190.496094 109.71875 C 190.367188 109.71875 190.257813 109.691406 190.164063 109.625 C 190.070313 109.546875 190.023438 109.4375 190.023438 109.296875 L 190.023438 98.558594 C 190.023438 98.417969 190.070313 98.324219 190.164063 98.277344 C 190.257813 98.214844 190.367188 98.183594 190.496094 98.183594 L 190.496094 97.757813 L 186.136719 97.757813 L 186.136719 98.183594 C 186.339844 98.183594 186.445313 98.269531 186.445313 98.441406 C 186.445313 98.535156 186.414063 98.644531 186.347656 98.769531 C 186.300781 98.878906 186.226563 99.039063 186.113281 99.242188 L 182.722656 105.292969 L 179.355469 99.171875 C 179.277344 99.03125 179.207031 98.898438 179.144531 98.769531 C 179.082031 98.644531 179.050781 98.542969 179.050781 98.464844 C 179.050781 98.371094 179.089844 98.300781 179.167969 98.253906 C 179.261719 98.207031 179.347656 98.183594 179.425781 98.183594 L 179.425781 97.757813 L 175.023438 97.757813 L 175.023438 98.183594 C 175.148438 98.183594 175.257813 98.214844 175.351563 98.277344 C 175.449219 98.324219 175.492188 98.417969 175.492188 98.558594 L 175.492188 109.296875 C 175.492188 109.4375 175.449219 109.546875 175.351563 109.625 C 175.257813 109.691406 175.148438 109.71875 175.023438 109.71875 L 175.023438 110.144531 "/>
</g>
<g clip-path="url(#clip10)" clip-rule="nonzero">
<path style=" stroke:none;fill-rule:nonzero;fill:rgb(13.699341%,12.199402%,12.5%);fill-opacity:1;" d="M 195.347656 110.144531 L 198.878906 110.144531 L 198.878906 109.71875 C 198.4375 109.71875 198.21875 109.578125 198.21875 109.296875 L 198.21875 101.457031 L 198.265625 101.457031 L 202.902344 110.144531 L 202.976563 110.144531 L 207.707031 101.476563 L 207.753906 101.476563 L 207.753906 109.296875 C 207.753906 109.578125 207.542969 109.71875 207.117188 109.71875 L 207.117188 110.144531 L 210.816406 110.144531 L 210.816406 109.71875 C 210.691406 109.71875 210.578125 109.691406 210.488281 109.625 C 210.390625 109.546875 210.347656 109.4375 210.347656 109.296875 L 210.347656 98.558594 C 210.347656 98.417969 210.390625 98.324219 210.488281 98.277344 C 210.578125 98.214844 210.691406 98.183594 210.816406 98.183594 L 210.816406 97.757813 L 206.460938 97.757813 L 206.460938 98.183594 C 206.664063 98.183594 206.765625 98.269531 206.765625 98.441406 C 206.765625 98.535156 206.734375 98.644531 206.671875 98.769531 C 206.621094 98.878906 206.546875 99.039063 206.4375 99.242188 L 203.046875 105.292969 L 199.675781 99.171875 C 199.601563 99.03125 199.527344 98.898438 199.464844 98.769531 C 199.40625 98.644531 199.371094 98.542969 199.371094 98.464844 C 199.371094 98.371094 199.410156 98.300781 199.492188 98.253906 C 199.585938 98.207031 199.671875 98.183594 199.746094 98.183594 L 199.746094 97.757813 L 195.347656 97.757813 L 195.347656 98.183594 C 195.472656 98.183594 195.582031 98.214844 195.675781 98.277344 C 195.769531 98.324219 195.816406 98.417969 195.816406 98.558594 L 195.816406 109.296875 C 195.816406 109.4375 195.769531 109.546875 195.675781 109.625 C 195.582031 109.691406 195.472656 109.71875 195.347656 109.71875 L 195.347656 110.144531 "/>
</g>
<g clip-path="url(#clip11)" clip-rule="nonzero">
<path style=" stroke:none;fill-rule:nonzero;fill:rgb(13.699341%,12.199402%,12.5%);fill-opacity:1;" d="M 227.675781 100.300781 L 227.675781 97.191406 L 227.25 97.191406 C 227.25 97.363281 227.179688 97.507813 227.039063 97.617188 C 226.914063 97.710938 226.6875 97.757813 226.359375 97.757813 L 215.617188 97.757813 L 215.617188 98.183594 C 215.730469 98.183594 215.824219 98.21875 215.902344 98.300781 C 215.996094 98.363281 216.042969 98.464844 216.042969 98.605469 L 216.042969 109.292969 C 216.042969 109.4375 215.996094 109.546875 215.902344 109.625 C 215.824219 109.6875 215.730469 109.71875 215.617188 109.71875 L 215.617188 110.144531 L 226.59375 110.144531 C 226.828125 110.144531 227.015625 110.15625 227.15625 110.191406 C 227.316406 110.222656 227.394531 110.355469 227.394531 110.589844 L 227.816406 110.589844 L 227.816406 107.363281 L 227.394531 107.363281 C 227.394531 107.550781 227.316406 107.699219 227.15625 107.8125 C 227.015625 107.921875 226.828125 107.976563 226.59375 107.976563 L 218.730469 107.976563 L 218.730469 104.726563 L 223.34375 104.726563 C 223.65625 104.726563 223.898438 104.78125 224.070313 104.890625 C 224.246094 104.988281 224.332031 105.214844 224.332031 105.574219 L 224.757813 105.574219 L 224.757813 101.902344 L 224.332031 101.902344 C 224.332031 102.261719 224.246094 102.488281 224.070313 102.585938 C 223.898438 102.664063 223.65625 102.703125 223.34375 102.703125 L 218.730469 102.703125 L 218.730469 99.78125 L 226.359375 99.78125 C 226.6875 99.78125 226.914063 99.828125 227.039063 99.925781 C 227.179688 100 227.25 100.128906 227.25 100.300781 L 227.675781 100.300781 "/>
</g>
<g clip-path="url(#clip12)" clip-rule="nonzero">
<path style=" stroke:none;fill-rule:nonzero;fill:rgb(13.699341%,12.199402%,12.5%);fill-opacity:1;" d="M 232.148438 110.144531 L 235.632813 110.144531 L 235.632813 109.71875 C 235.273438 109.71875 235.09375 109.578125 235.09375 109.296875 L 235.09375 101.476563 L 242.273438 108.964844 C 242.523438 109.21875 242.648438 109.398438 242.648438 109.507813 C 242.648438 109.648438 242.546875 109.71875 242.34375 109.71875 L 242.34375 110.144531 L 246.160156 110.144531 L 246.160156 109.71875 C 245.859375 109.71875 245.710938 109.578125 245.710938 109.296875 L 245.710938 98.609375 C 245.710938 98.324219 245.859375 98.183594 246.160156 98.183594 L 246.160156 97.757813 L 242.605469 97.757813 L 242.605469 98.183594 C 243.011719 98.183594 243.214844 98.324219 243.214844 98.609375 L 243.214844 106.09375 L 236.460938 99.078125 C 236.144531 98.761719 235.988281 98.542969 235.988281 98.417969 C 235.988281 98.261719 236.050781 98.183594 236.175781 98.183594 L 236.175781 97.757813 L 232.148438 97.757813 L 232.148438 98.183594 C 232.445313 98.183594 232.597656 98.324219 232.597656 98.609375 L 232.597656 109.296875 C 232.597656 109.578125 232.445313 109.71875 232.148438 109.71875 L 232.148438 110.144531 "/>
</g>
<g clip-path="url(#clip13)" clip-rule="nonzero">
<path style=" stroke:none;fill-rule:evenodd;fill:rgb(13.699341%,12.199402%,12.5%);fill-opacity:1;" d="M 254 108.121094 L 254 99.785156 L 257.648438 99.785156 C 258.390625 99.785156 259.03125 99.847656 259.582031 99.972656 C 260.132813 100.097656 260.585938 100.324219 260.945313 100.652344 C 261.308594 100.96875 261.574219 101.390625 261.746094 101.925781 C 261.9375 102.460938 262.03125 103.136719 262.03125 103.953125 C 262.03125 104.765625 261.9375 105.441406 261.746094 105.976563 C 261.574219 106.511719 261.308594 106.941406 260.945313 107.269531 C 260.585938 107.585938 260.132813 107.804688 259.582031 107.929688 C 259.03125 108.054688 258.390625 108.121094 257.648438 108.121094 Z M 250.773438 97.757813 L 250.773438 98.179688 C 251.136719 98.179688 251.316406 98.324219 251.316406 98.605469 L 251.316406 109.296875 C 251.316406 109.578125 251.136719 109.71875 250.773438 109.71875 L 250.773438 110.144531 L 258.59375 110.144531 C 259.453125 110.144531 260.257813 110.019531 260.996094 109.765625 C 261.746094 109.515625 262.398438 109.140625 262.949219 108.636719 C 263.496094 108.121094 263.929688 107.472656 264.246094 106.707031 C 264.558594 105.921875 264.714844 105.003906 264.714844 103.953125 C 264.714844 102.898438 264.558594 101.988281 264.246094 101.21875 C 263.929688 100.433594 263.496094 99.792969 262.949219 99.289063 C 262.398438 98.769531 261.746094 98.386719 260.996094 98.132813 C 260.257813 97.886719 259.453125 97.757813 258.59375 97.757813 L 250.773438 97.757813 "/>
</g>
<g clip-path="url(#clip14)" clip-rule="nonzero">
<path style=" stroke:none;fill-rule:nonzero;fill:rgb(13.699341%,12.199402%,12.5%);fill-opacity:1;" d="M 280.820313 100.300781 L 280.820313 97.191406 L 280.398438 97.191406 C 280.398438 97.363281 280.328125 97.507813 280.183594 97.617188 C 280.058594 97.710938 279.832031 97.757813 279.503906 97.757813 L 268.765625 97.757813 L 268.765625 98.183594 C 268.871094 98.183594 268.96875 98.21875 269.046875 98.300781 C 269.140625 98.363281 269.1875 98.464844 269.1875 98.605469 L 269.1875 109.292969 C 269.1875 109.4375 269.140625 109.546875 269.046875 109.625 C 268.96875 109.6875 268.871094 109.71875 268.765625 109.71875 L 268.765625 110.144531 L 279.738281 110.144531 C 279.972656 110.144531 280.160156 110.15625 280.300781 110.191406 C 280.460938 110.222656 280.539063 110.355469 280.539063 110.589844 L 280.960938 110.589844 L 280.960938 107.363281 L 280.539063 107.363281 C 280.539063 107.550781 280.460938 107.699219 280.300781 107.8125 C 280.160156 107.921875 279.972656 107.976563 279.738281 107.976563 L 271.875 107.976563 L 271.875 104.726563 L 276.488281 104.726563 C 276.800781 104.726563 277.042969 104.78125 277.21875 104.890625 C 277.390625 104.988281 277.476563 105.214844 277.476563 105.574219 L 277.902344 105.574219 L 277.902344 101.902344 L 277.476563 101.902344 C 277.476563 102.261719 277.390625 102.488281 277.21875 102.585938 C 277.042969 102.664063 276.800781 102.703125 276.488281 102.703125 L 271.875 102.703125 L 271.875 99.78125 L 279.503906 99.78125 C 279.832031 99.78125 280.058594 99.828125 280.183594 99.925781 C 280.328125 100 280.398438 100.128906 280.398438 100.300781 L 280.820313 100.300781 "/>
</g>
<g clip-path="url(#clip15)" clip-rule="nonzero">
<path style=" stroke:none;fill-rule:evenodd;fill:rgb(13.699341%,12.199402%,12.5%);fill-opacity:1;" d="M 288.121094 108.121094 L 288.121094 99.785156 L 291.773438 99.785156 C 292.511719 99.785156 293.152344 99.847656 293.703125 99.972656 C 294.253906 100.097656 294.707031 100.324219 295.066406 100.652344 C 295.429688 100.96875 295.695313 101.390625 295.867188 101.925781 C 296.058594 102.460938 296.152344 103.136719 296.152344 103.953125 C 296.152344 104.765625 296.058594 105.441406 295.867188 105.976563 C 295.695313 106.511719 295.429688 106.941406 295.066406 107.269531 C 294.707031 107.585938 294.253906 107.804688 293.703125 107.929688 C 293.152344 108.054688 292.511719 108.121094 291.773438 108.121094 Z M 284.894531 97.757813 L 284.894531 98.179688 C 285.257813 98.179688 285.4375 98.324219 285.4375 98.605469 L 285.4375 109.296875 C 285.4375 109.578125 285.257813 109.71875 284.894531 109.71875 L 284.894531 110.144531 L 292.714844 110.144531 C 293.578125 110.144531 294.378906 110.019531 295.113281 109.765625 C 295.867188 109.515625 296.519531 109.140625 297.070313 108.636719 C 297.617188 108.121094 298.050781 107.472656 298.363281 106.707031 C 298.679688 105.921875 298.835938 105.003906 298.835938 103.953125 C 298.835938 102.898438 298.679688 101.988281 298.363281 101.21875 C 298.050781 100.433594 297.617188 99.792969 297.070313 99.289063 C 296.519531 98.769531 295.867188 98.386719 295.113281 98.132813 C 294.378906 97.886719 293.578125 97.757813 292.714844 97.757813 L 284.894531 97.757813 "/>
</g>
</g>
</svg>
