<?xml version="1.0" encoding="UTF-8"?>
<svg xmlns="http://www.w3.org/2000/svg" xmlns:xlink="http://www.w3.org/1999/xlink" width="567pt" height="567pt" viewBox="0 0 567 567" version="1.1">
<g id="surface1">
<path style=" stroke:none;fill-rule:evenodd;fill:rgb(70.896912%,5.099487%,5.883789%);fill-opacity:1;" d="M 0 0.0703125 L 566.929688 0.0703125 L 566.929688 567 L 0 567 L 0 0.0703125 "/>
<path style=" stroke:none;fill-rule:evenodd;fill:rgb(98.826599%,100%,100%);fill-opacity:1;" d="M 500.914063 315.371094 L 504.554688 315.324219 C 505.097656 315.328125 505.636719 315.269531 506.164063 315.148438 C 507.085938 314.925781 507.71875 314.089844 507.6875 313.144531 C 507.6875 312.253906 507.09375 311.472656 506.230469 311.234375 C 505.800781 311.113281 505.355469 311.0625 504.910156 311.082031 L 500.859375 311.132813 Z M 510.617188 322.433594 L 508.480469 322.460938 C 507.644531 321.152344 506.789063 319.859375 505.914063 318.578125 C 505.589844 318.117188 505.203125 317.703125 504.769531 317.347656 C 504.507813 317.132813 504.195313 316.988281 503.859375 316.929688 C 503.539063 316.878906 503.21875 316.859375 502.894531 316.867188 L 500.933594 316.890625 L 501.007813 322.554688 L 499.308594 322.578125 L 499.144531 309.746094 L 504.824219 309.671875 C 505.453125 309.65625 506.078125 309.695313 506.703125 309.785156 C 507.894531 309.953125 508.878906 310.796875 509.238281 311.945313 C 509.367188 312.324219 509.433594 312.722656 509.4375 313.125 C 509.464844 313.769531 509.296875 314.410156 508.960938 314.960938 C 508.539063 315.585938 507.925781 316.054688 507.214844 316.296875 C 506.785156 316.453125 506.339844 316.5625 505.882813 316.628906 L 505.886719 316.664063 C 506.527344 316.957031 507.09375 317.390625 507.546875 317.933594 C 507.832031 318.257813 508.09375 318.605469 508.332031 318.96875 Z M 391.066406 250.886719 L 390.957031 280.894531 L 396.585938 280.902344 C 397.570313 280.507813 398.402344 279.8125 398.960938 278.910156 C 399.703125 277.710938 400.226563 276.386719 400.507813 275 C 401.179688 271.554688 401.414063 268.039063 401.210938 264.535156 L 401.199219 264.261719 C 401.191406 261.441406 400.84375 258.632813 400.167969 255.890625 C 399.878906 254.734375 399.382813 253.636719 398.707031 252.652344 C 398.171875 251.871094 397.390625 251.292969 396.488281 251.007813 C 396.292969 250.949219 396.09375 250.910156 395.894531 250.882813 Z M 60.238281 237.796875 L 60.238281 255.347656 L 66.179688 255.355469 L 92.828125 326.847656 L 110.136719 326.839844 L 120.789063 299.003906 L 123.113281 299.003906 L 133.472656 326.828125 L 151.003906 326.816406 L 177.359375 255.300781 L 183.414063 255.285156 L 183.292969 237.746094 L 146.109375 237.765625 L 145.894531 255.304688 L 152.15625 255.3125 L 143.199219 278.980469 C 143.089844 279.265625 142.953125 279.539063 142.796875 279.800781 C 142.6875 279.980469 142.554688 280.136719 142.398438 280.273438 C 142.300781 280.355469 142.183594 280.410156 142.054688 280.4375 C 141.910156 280.457031 141.765625 280.425781 141.644531 280.351563 C 141.492188 280.257813 141.359375 280.136719 141.253906 279.996094 C 141.015625 279.683594 140.820313 279.339844 140.664063 278.980469 L 131.910156 255.324219 L 137.613281 255.308594 L 137.9375 237.769531 L 106.023438 237.785156 L 106.035156 255.324219 L 111.847656 255.332031 L 102.78125 279.5625 C 102.710938 279.738281 102.628906 279.910156 102.527344 280.074219 C 102.445313 280.179688 102.347656 280.273438 102.234375 280.347656 C 102.136719 280.371094 102.035156 280.367188 101.941406 280.332031 C 101.863281 280.285156 101.792969 280.222656 101.734375 280.148438 C 101.589844 279.96875 101.46875 279.769531 101.367188 279.558594 L 91.605469 255.34375 L 97.863281 255.441406 L 97.742188 237.792969 Z M 189.105469 237.777344 C 189.128906 237.96875 189.144531 238.15625 189.152344 238.347656 L 189.113281 255.28125 L 195.273438 255.289063 L 195.304688 309.015625 L 189.140625 309.03125 L 189.148438 326.90625 L 228.574219 326.886719 L 228.566406 309.011719 L 222.628906 309.003906 L 222.601563 255.277344 L 228.539063 255.261719 L 228.527344 237.726563 Z M 234.242188 237.710938 L 234.238281 255.257813 L 240.0625 255.269531 L 240.089844 308.996094 L 234.265625 309.011719 L 234.273438 326.882813 L 274.371094 326.863281 L 274.363281 308.988281 L 267.976563 308.980469 L 267.96875 290.714844 C 268.105469 290.179688 268.339844 289.675781 268.65625 289.226563 C 269.230469 288.390625 270.230469 287.953125 271.234375 288.097656 C 272.796875 288.347656 274.058594 289.511719 274.429688 291.050781 L 287.367188 326.859375 L 298.503906 326.855469 L 311.976563 290.136719 C 312.25 289.597656 312.632813 289.121094 313.097656 288.734375 C 314.097656 287.878906 315.566406 287.847656 316.601563 288.660156 C 317.441406 289.34375 317.914063 290.386719 317.878906 291.46875 L 317.886719 308.953125 L 311.726563 308.972656 L 311.960938 326.84375 L 351.609375 326.820313 L 351.597656 308.949219 L 345.4375 308.941406 L 345.183594 255.214844 L 351.570313 255.195313 L 351.5625 237.660156 L 308.546875 237.679688 L 296.53125 271.601563 C 296.234375 272.152344 295.902344 272.679688 295.535156 273.183594 C 295.195313 273.675781 294.765625 274.101563 294.269531 274.4375 C 293.765625 274.777344 293.136719 274.882813 292.546875 274.722656 C 292.070313 274.582031 291.632813 274.339844 291.257813 274.019531 C 290.546875 273.414063 289.921875 272.714844 289.394531 271.941406 L 276.90625 237.695313 Z M 357.050781 237.644531 L 357.046875 255.195313 L 362.980469 255.203125 L 363.007813 308.929688 L 357.074219 308.945313 L 357.082031 326.820313 L 396.730469 326.800781 L 396.722656 308.925781 L 391.007813 308.917969 L 391.003906 295.722656 C 393.960938 295.96875 396.925781 296.101563 399.894531 296.128906 C 404.621094 296.296875 409.34375 295.726563 413.894531 294.441406 C 419.199219 292.925781 423.53125 289.09375 425.667969 284.007813 C 427.390625 279.851563 428.492188 275.464844 428.941406 270.984375 C 429.765625 265.042969 428.988281 258.992188 426.6875 253.453125 L 426.527344 253.066406 C 424.175781 246.792969 419.191406 241.871094 412.886719 239.601563 C 407.59375 237.851563 402.003906 237.179688 396.445313 237.625 Z M 431.472656 237.605469 L 431.46875 255.15625 L 437.414063 255.164063 L 455.042969 285.230469 L 455.054688 308.882813 L 448.78125 308.898438 L 448.789063 326.773438 L 488.214844 326.753906 L 488.203125 308.878906 L 482.605469 308.871094 L 482.59375 284.546875 L 500.3125 255.132813 L 506.261719 255.117188 L 506.253906 237.582031 L 471.195313 237.601563 L 471.203125 255.136719 L 477.011719 255.144531 L 471.421875 266.234375 C 471.171875 266.726563 470.867188 267.191406 470.519531 267.621094 C 470.269531 267.9375 469.964844 268.199219 469.617188 268.394531 C 469.234375 268.605469 468.773438 268.621094 468.378906 268.441406 C 468.074219 268.300781 467.800781 268.097656 467.578125 267.851563 C 467.113281 267.332031 466.722656 266.753906 466.417969 266.125 L 460.929688 255.152344 L 466.289063 255.140625 L 466.394531 237.601563 Z M 504.769531 327.066406 C 500.894531 327.113281 497.289063 325.09375 495.308594 321.761719 C 493.328125 318.433594 493.273438 314.300781 495.167969 310.917969 C 497.0625 307.539063 500.617188 305.425781 504.488281 305.375 C 508.363281 305.328125 511.972656 307.347656 513.953125 310.679688 C 515.933594 314.007813 515.984375 318.144531 514.089844 321.523438 C 512.195313 324.902344 508.644531 327.015625 504.769531 327.066406 Z M 504.757813 326.042969 C 502.152344 326.078125 499.640625 325.078125 497.777344 323.261719 C 495.910156 321.445313 494.84375 318.949219 494.808594 316.347656 C 494.773438 313.742188 495.773438 311.234375 497.589844 309.367188 C 499.40625 307.503906 501.898438 306.433594 504.503906 306.398438 C 507.105469 306.363281 509.617188 307.363281 511.480469 309.179688 C 513.347656 310.996094 514.414063 313.492188 514.449219 316.09375 C 514.484375 318.699219 513.484375 321.207031 511.667969 323.074219 C 509.855469 324.9375 507.359375 326.007813 504.757813 326.042969 Z M 14.316406 262.933594 C 15.832031 206.851563 40.527344 153.605469 83.230469 117.058594 L 83.375 116.933594 C 103.089844 100.359375 126.253906 88.515625 150.816406 80.960938 C 239.265625 53.753906 333.007813 56.617188 421.476563 82.226563 L 421.976563 82.371094 L 422.460938 82.550781 C 489.605469 107.507813 538.878906 165.769531 549.558594 236.929688 C 556.34375 282.121094 552.359375 328.390625 537.335938 371.585938 L 537.179688 372.007813 C 516.429688 426.933594 470.953125 468.808594 414.84375 485.820313 C 323.171875 513.609375 224.203125 511.914063 134.015625 479.277344 L 133.847656 479.21875 L 133.679688 479.152344 C 78.664063 457.9375 38.355469 410.84375 23.832031 353.917969 C 16.253906 324.21875 13.488281 293.59375 14.316406 262.992188 Z M 27.457031 263.289063 C 28.785156 210.867188 52.15625 161.394531 91.777344 127.046875 L 91.804688 127.019531 L 91.835938 126.996094 C 110.335938 111.753906 131.710938 100.371094 154.679688 93.523438 C 240.34375 66.347656 332.4375 66.824219 417.820313 94.851563 L 417.851563 94.859375 L 417.882813 94.871094 C 481.125 117.046875 526.847656 172.570313 536.5625 238.878906 C 543.1875 281.980469 539.1875 326.0625 524.917969 367.265625 L 524.902344 367.316406 L 524.882813 367.363281 C 505.339844 418.335938 463.28125 457.425781 411.03125 473.238281 C 321.863281 500.316406 226.308594 498.085938 138.488281 466.917969 L 138.449219 466.902344 L 138.40625 466.886719 C 87.476563 447.199219 49.417969 403.738281 36.570313 350.667969 C 28.941406 322.226563 25.863281 292.75 27.453125 263.347656 Z M 493.382813 210.152344 L 74.867188 210.316406 C 77.671875 203.148438 81.050781 196.214844 84.976563 189.59375 C 102.28125 161.578125 128.613281 140.261719 159.613281 129.160156 C 198.296875 115.308594 239.113281 108.304688 280.199219 108.46875 L 290.773438 108.566406 C 332.484375 107.992188 373.933594 115.421875 412.851563 130.441406 C 449.589844 144.667969 478.769531 173.5625 493.382813 210.152344 Z M 509.953125 222.195313 C 497.804688 174.929688 463.5625 136.492188 417.992188 119.027344 C 377.753906 103.589844 334.964844 95.910156 291.867188 96.394531 L 279.847656 96.277344 C 236.355469 96.085938 193.199219 103.722656 152.417969 118.835938 C 116.933594 131.910156 87.503906 157.546875 69.707031 190.910156 C 64.582031 200.898438 60.488281 211.382813 57.496094 222.199219 Z M 57.691406 341.015625 C 68.695313 388.40625 102.183594 427.378906 147.394531 445.347656 C 186.859375 461 228.910156 469.070313 271.367188 469.132813 L 284.203125 469.425781 C 327.066406 470.449219 369.753906 463.8125 410.277344 449.820313 C 449.867188 436.175781 482.230469 407.113281 500.011719 369.199219 C 504.269531 359.914063 507.714844 350.277344 510.308594 340.394531 Z M 74.832031 353.707031 L 493.035156 353.648438 C 477.570313 392.0625 446.640625 422.21875 407.859375 436.734375 C 368.394531 451.421875 326.46875 458.410156 284.375 457.324219 L 273.171875 457.082031 C 232.222656 457.128906 191.621094 449.351563 153.582031 434.183594 C 117.191406 419.632813 88.597656 390.398438 74.832031 353.707031 "/>
</g>
</svg>
